<svg width="225" height="210" viewBox="0 0 225 210" fill="none" xmlns="http://www.w3.org/2000/svg">
<rect width="225" height="210" rx="8" fill="#E6D0BE"/>
<mask id="mask0_454_723" style="mask-type:alpha" maskUnits="userSpaceOnUse" x="0" y="0" width="225" height="210">
<rect width="225" height="210" rx="8" fill="#F2E6DC"/>
</mask>
<g mask="url(#mask0_454_723)">
<rect width="225" height="210" rx="8" fill="#F2E6DC"/>
<path d="M41.8563 88.7014H-11.7858V209.975H41.8563V88.7014Z" fill="#E6D0BE"/>
<path d="M39.8038 93.5023H-7.61841V205.174H39.8038V93.5023Z" fill="white"/>
<path d="M46.1517 210.143H-7.49038C-7.57345 210.143 -7.64059 210.068 -7.64059 209.975V88.7014C-7.64059 88.6082 -7.57345 88.5326 -7.49038 88.5326H46.1517C46.2348 88.5326 46.3019 88.6082 46.3019 88.7014V209.975C46.3019 210.068 46.2348 210.143 46.1517 210.143ZM-7.34018 209.806H46.0015V88.8702H-7.34018V209.806Z" fill="#363E44"/>
<path d="M23.2808 147.259L11.3569 128.629L15.291 149.383L1.46872 137.403L11.6477 156.083L-3.12439 159.025L6.84907 162.853L2.48669 170.464L15.291 166.378L1.46872 191.381L23.2808 168.864L28.0794 176.821V162.853L35.3502 161.149L29.8244 155.29L37.095 132.224L23.2808 147.259Z" fill="#E6D0BE"/>
<path d="M93.4867 -12.7596H17.0482V160.051H93.4867V-12.7596Z" fill="#E6D0BE"/>
<path d="M90.562 -5.91852H22.9866V153.21H90.562V-5.91852Z" fill="white"/>
<path d="M170.261 -12.7596H93.4868V160.051H170.261V-12.7596Z" fill="#E6D0BE"/>
<path d="M164.623 -5.91852H96.5941V153.21H164.623V-5.91852Z" fill="white"/>
<path d="M90.562 74.1069L22.9866 153.21V73.1197L90.562 -5.9837V74.1069Z" fill="#F7F1EB"/>
<path d="M164.623 74.1069L96.5941 153.21V73.1197L164.623 -5.9837V74.1069Z" fill="#F7F1EB"/>
<path d="M99.6076 160.292H23.169C23.0506 160.292 22.955 160.184 22.955 160.051V-12.7595C22.955 -12.8922 23.0506 -13 23.169 -13H99.6076C99.7259 -13 99.8216 -12.8922 99.8216 -12.7595V160.051C99.8216 160.184 99.7259 160.292 99.6076 160.292ZM23.383 159.811H99.3935V-12.5189H23.383V159.811Z" fill="#363E44"/>
<path d="M168.423 2.47346H95.5623C95.4439 2.47346 95.3482 2.3657 95.3482 2.23292C95.3482 2.10014 95.4439 1.99237 95.5623 1.99237H168.423C168.541 1.99237 168.637 2.10014 168.637 2.23292C168.637 2.3657 168.541 2.47346 168.423 2.47346Z" fill="#E6D0BE"/>
<path d="M168.423 7.56801H95.5623C95.4439 7.56801 95.3482 7.46024 95.3482 7.32746C95.3482 7.19468 95.4439 7.08691 95.5623 7.08691H168.423C168.541 7.08691 168.637 7.19468 168.637 7.32746C168.637 7.46024 168.541 7.56801 168.423 7.56801Z" fill="#E6D0BE"/>
<path d="M168.423 12.6625H95.5623C95.4439 12.6625 95.3482 12.5547 95.3482 12.4219C95.3482 12.2892 95.4439 12.1814 95.5623 12.1814H168.423C168.541 12.1814 168.637 12.2892 168.637 12.4219C168.637 12.5547 168.541 12.6625 168.423 12.6625Z" fill="#E6D0BE"/>
<path d="M168.423 17.757H95.5623C95.4439 17.757 95.3482 17.6492 95.3482 17.5164C95.3482 17.3836 95.4439 17.2759 95.5623 17.2759H168.423C168.541 17.2759 168.637 17.3836 168.637 17.5164C168.637 17.6494 168.541 17.757 168.423 17.757Z" fill="#E6D0BE"/>
<path d="M168.423 22.8516H95.5623C95.4439 22.8516 95.3482 22.7438 95.3482 22.611C95.3482 22.4782 95.4439 22.3705 95.5623 22.3705H168.423C168.541 22.3705 168.637 22.4782 168.637 22.611C168.637 22.7441 168.541 22.8516 168.423 22.8516Z" fill="#E6D0BE"/>
<path d="M168.423 27.9461H95.5623C95.4439 27.9461 95.3482 27.8383 95.3482 27.7055C95.3482 27.5727 95.4439 27.465 95.5623 27.465H168.423C168.541 27.465 168.637 27.5727 168.637 27.7055C168.637 27.8385 168.541 27.9461 168.423 27.9461Z" fill="#E6D0BE"/>
<path d="M168.423 33.0405H95.5623C95.4439 33.0405 95.3482 32.9328 95.3482 32.8C95.3482 32.6672 95.4439 32.5594 95.5623 32.5594H168.423C168.541 32.5594 168.637 32.6672 168.637 32.8C168.637 32.933 168.541 33.0405 168.423 33.0405Z" fill="#E6D0BE"/>
<path d="M168.423 38.1353H95.5623C95.4439 38.1353 95.3482 38.0275 95.3482 37.8947C95.3482 37.7619 95.4439 37.6542 95.5623 37.6542H168.423C168.541 37.6542 168.637 37.7619 168.637 37.8947C168.637 38.0275 168.541 38.1353 168.423 38.1353Z" fill="#E6D0BE"/>
<path d="M168.423 43.2298H95.5623C95.4439 43.2298 95.3482 43.122 95.3482 42.9893C95.3482 42.8565 95.4439 42.7487 95.5623 42.7487H168.423C168.541 42.7487 168.637 42.8565 168.637 42.9893C168.637 43.122 168.541 43.2298 168.423 43.2298Z" fill="#E6D0BE"/>
<path d="M168.423 48.3244H95.5623C95.4439 48.3244 95.3482 48.2166 95.3482 48.0839C95.3482 47.9511 95.4439 47.8433 95.5623 47.8433H168.423C168.541 47.8433 168.637 47.9511 168.637 48.0839C168.637 48.2166 168.541 48.3244 168.423 48.3244Z" fill="#E6D0BE"/>
<path d="M168.423 53.4189H95.5623C95.4439 53.4189 95.3482 53.3111 95.3482 53.1784C95.3482 53.0456 95.4439 52.9378 95.5623 52.9378H168.423C168.541 52.9378 168.637 53.0456 168.637 53.1784C168.637 53.3111 168.541 53.4189 168.423 53.4189Z" fill="#E6D0BE"/>
<path d="M168.423 58.5134H95.5623C95.4439 58.5134 95.3482 58.4057 95.3482 58.2729C95.3482 58.1401 95.4439 58.0323 95.5623 58.0323H168.423C168.541 58.0323 168.637 58.1401 168.637 58.2729C168.637 58.4057 168.541 58.5134 168.423 58.5134Z" fill="#E6D0BE"/>
<path d="M168.423 63.6079H95.5623C95.4439 63.6079 95.3482 63.5002 95.3482 63.3674C95.3482 63.2346 95.4439 63.1268 95.5623 63.1268H168.423C168.541 63.1268 168.637 63.2346 168.637 63.3674C168.637 63.5002 168.541 63.6079 168.423 63.6079Z" fill="#E6D0BE"/>
<path d="M168.423 68.7024H95.5623C95.4439 68.7024 95.3482 68.5946 95.3482 68.4619C95.3482 68.3291 95.4439 68.2213 95.5623 68.2213H168.423C168.541 68.2213 168.637 68.3291 168.637 68.4619C168.637 68.5946 168.541 68.7024 168.423 68.7024Z" fill="#E6D0BE"/>
<path d="M168.423 73.7973H95.5623C95.4439 73.7973 95.3482 73.6895 95.3482 73.5567C95.3482 73.4239 95.4439 73.3162 95.5623 73.3162H168.423C168.541 73.3162 168.637 73.4239 168.637 73.5567C168.637 73.6895 168.541 73.7973 168.423 73.7973Z" fill="#E6D0BE"/>
<path d="M168.423 78.8917H95.5623C95.4439 78.8917 95.3482 78.7839 95.3482 78.6511C95.3482 78.5183 95.4439 78.4106 95.5623 78.4106H168.423C168.541 78.4106 168.637 78.5183 168.637 78.6511C168.637 78.7842 168.541 78.8917 168.423 78.8917Z" fill="#E6D0BE"/>
<path d="M168.423 83.9863H95.5623C95.4439 83.9863 95.3482 83.8785 95.3482 83.7457C95.3482 83.613 95.4439 83.5052 95.5623 83.5052H168.423C168.541 83.5052 168.637 83.613 168.637 83.7457C168.637 83.8788 168.541 83.9863 168.423 83.9863Z" fill="#E6D0BE"/>
<path d="M168.423 89.0807H95.5623C95.4439 89.0807 95.3482 88.9729 95.3482 88.8402C95.3482 88.7074 95.4439 88.5996 95.5623 88.5996H168.423C168.541 88.5996 168.637 88.7074 168.637 88.8402C168.637 88.9732 168.541 89.0807 168.423 89.0807Z" fill="#E6D0BE"/>
<path d="M168.423 94.1753H95.5623C95.4439 94.1753 95.3482 94.0675 95.3482 93.9348C95.3482 93.802 95.4439 93.6942 95.5623 93.6942H168.423C168.541 93.6942 168.637 93.802 168.637 93.9348C168.637 94.0675 168.541 94.1753 168.423 94.1753Z" fill="#E6D0BE"/>
<path d="M168.423 99.27H95.5623C95.4439 99.27 95.3482 99.1622 95.3482 99.0294C95.3482 98.8966 95.4439 98.7889 95.5623 98.7889H168.423C168.541 98.7889 168.637 98.8966 168.637 99.0294C168.637 99.1622 168.541 99.27 168.423 99.27Z" fill="#E6D0BE"/>
<path d="M168.423 104.365H95.5623C95.4439 104.365 95.3482 104.257 95.3482 104.124C95.3482 103.991 95.4439 103.883 95.5623 103.883H168.423C168.541 103.883 168.637 103.991 168.637 104.124C168.637 104.257 168.541 104.365 168.423 104.365Z" fill="#E6D0BE"/>
<path d="M168.423 109.459H95.5623C95.4439 109.459 95.3482 109.351 95.3482 109.219C95.3482 109.086 95.4439 108.978 95.5623 108.978H168.423C168.541 108.978 168.637 109.086 168.637 109.219C168.637 109.351 168.541 109.459 168.423 109.459Z" fill="#E6D0BE"/>
<path d="M168.423 114.554H95.5623C95.4439 114.554 95.3482 114.446 95.3482 114.313C95.3482 114.18 95.4439 114.073 95.5623 114.073H168.423C168.541 114.073 168.637 114.18 168.637 114.313C168.637 114.446 168.541 114.554 168.423 114.554Z" fill="#E6D0BE"/>
<path d="M168.423 119.648H95.5623C95.4439 119.648 95.3482 119.54 95.3482 119.408C95.3482 119.275 95.4439 119.167 95.5623 119.167H168.423C168.541 119.167 168.637 119.275 168.637 119.408C168.637 119.54 168.541 119.648 168.423 119.648Z" fill="#E6D0BE"/>
<path d="M168.423 124.743H95.5623C95.4439 124.743 95.3482 124.635 95.3482 124.502C95.3482 124.369 95.4439 124.262 95.5623 124.262H168.423C168.541 124.262 168.637 124.369 168.637 124.502C168.637 124.635 168.541 124.743 168.423 124.743Z" fill="#E6D0BE"/>
<path d="M168.423 129.837H95.5623C95.4439 129.837 95.3482 129.729 95.3482 129.597C95.3482 129.464 95.4439 129.356 95.5623 129.356H168.423C168.541 129.356 168.637 129.464 168.637 129.597C168.637 129.729 168.541 129.837 168.423 129.837Z" fill="#E6D0BE"/>
<path d="M168.423 134.932H95.5623C95.4439 134.932 95.3482 134.824 95.3482 134.691C95.3482 134.558 95.4439 134.451 95.5623 134.451H168.423C168.541 134.451 168.637 134.558 168.637 134.691C168.637 134.824 168.541 134.932 168.423 134.932Z" fill="#E6D0BE"/>
<path d="M168.423 140.026H95.5623C95.4439 140.026 95.3482 139.919 95.3482 139.786C95.3482 139.653 95.4439 139.545 95.5623 139.545H168.423C168.541 139.545 168.637 139.653 168.637 139.786C168.637 139.919 168.541 140.026 168.423 140.026Z" fill="#E6D0BE"/>
<path d="M168.423 145.121H95.5623C95.4439 145.121 95.3482 145.013 95.3482 144.88C95.3482 144.747 95.4439 144.64 95.5623 144.64H168.423C168.541 144.64 168.637 144.747 168.637 144.88C168.637 145.013 168.541 145.121 168.423 145.121Z" fill="#E6D0BE"/>
<path d="M168.423 150.215H95.5623C95.4439 150.215 95.3482 150.108 95.3482 149.975C95.3482 149.842 95.4439 149.734 95.5623 149.734H168.423C168.541 149.734 168.637 149.842 168.637 149.975C168.637 150.108 168.541 150.215 168.423 150.215Z" fill="#E6D0BE"/>
<path d="M99.3529 157.523C99.2345 157.523 99.1389 157.416 99.1389 157.283V-9.88512C99.1389 -10.0179 99.2345 -10.1257 99.3529 -10.1257C99.4713 -10.1257 99.5669 -10.0179 99.5669 -9.88512V157.283C99.5669 157.416 99.4713 157.523 99.3529 157.523Z" fill="#E6D0BE"/>
<path d="M103.886 157.523C103.768 157.523 103.672 157.416 103.672 157.283V-9.88512C103.672 -10.0179 103.768 -10.1257 103.886 -10.1257C104.004 -10.1257 104.1 -10.0179 104.1 -9.88512V157.283C104.1 157.416 104.004 157.523 103.886 157.523Z" fill="#E6D0BE"/>
<path d="M108.419 157.523C108.301 157.523 108.205 157.416 108.205 157.283V-9.88512C108.205 -10.0179 108.301 -10.1257 108.419 -10.1257C108.538 -10.1257 108.634 -10.0179 108.634 -9.88512V157.283C108.634 157.416 108.538 157.523 108.419 157.523Z" fill="#E6D0BE"/>
<path d="M112.953 157.523C112.834 157.523 112.739 157.416 112.739 157.283V-9.88512C112.739 -10.0179 112.834 -10.1257 112.953 -10.1257C113.071 -10.1257 113.167 -10.0179 113.167 -9.88512V157.283C113.167 157.416 113.071 157.523 112.953 157.523Z" fill="#E6D0BE"/>
<path d="M117.486 157.523C117.367 157.523 117.272 157.416 117.272 157.283V-9.88512C117.272 -10.0179 117.367 -10.1257 117.486 -10.1257C117.604 -10.1257 117.7 -10.0179 117.7 -9.88512V157.283C117.7 157.416 117.604 157.523 117.486 157.523Z" fill="#E6D0BE"/>
<path d="M122.019 157.523C121.901 157.523 121.805 157.416 121.805 157.283V-9.88512C121.805 -10.0179 121.901 -10.1257 122.019 -10.1257C122.137 -10.1257 122.233 -10.0179 122.233 -9.88512V157.283C122.233 157.416 122.137 157.523 122.019 157.523Z" fill="#E6D0BE"/>
<path d="M126.552 157.523C126.434 157.523 126.338 157.416 126.338 157.283V-9.88512C126.338 -10.0179 126.434 -10.1257 126.552 -10.1257C126.671 -10.1257 126.766 -10.0179 126.766 -9.88512V157.283C126.766 157.416 126.671 157.523 126.552 157.523Z" fill="#E6D0BE"/>
<path d="M131.086 157.523C130.968 157.523 130.872 157.416 130.872 157.283V-9.88512C130.872 -10.0179 130.968 -10.1257 131.086 -10.1257C131.204 -10.1257 131.3 -10.0179 131.3 -9.88512V157.283C131.3 157.416 131.204 157.523 131.086 157.523Z" fill="#E6D0BE"/>
<path d="M135.619 157.523C135.5 157.523 135.405 157.416 135.405 157.283V-9.88512C135.405 -10.0179 135.5 -10.1257 135.619 -10.1257C135.737 -10.1257 135.833 -10.0179 135.833 -9.88512V157.283C135.833 157.416 135.737 157.523 135.619 157.523Z" fill="#E6D0BE"/>
<path d="M140.152 157.523C140.034 157.523 139.938 157.416 139.938 157.283V-9.88512C139.938 -10.0179 140.034 -10.1257 140.152 -10.1257C140.27 -10.1257 140.366 -10.0179 140.366 -9.88512V157.283C140.366 157.416 140.27 157.523 140.152 157.523Z" fill="#E6D0BE"/>
<path d="M144.686 157.523C144.567 157.523 144.472 157.416 144.472 157.283V-9.88512C144.472 -10.0179 144.567 -10.1257 144.686 -10.1257C144.804 -10.1257 144.9 -10.0179 144.9 -9.88512V157.283C144.9 157.416 144.804 157.523 144.686 157.523Z" fill="#E6D0BE"/>
<path d="M149.219 157.523C149.1 157.523 149.005 157.416 149.005 157.283V-9.88512C149.005 -10.0179 149.1 -10.1257 149.219 -10.1257C149.337 -10.1257 149.433 -10.0179 149.433 -9.88512V157.283C149.433 157.416 149.337 157.523 149.219 157.523Z" fill="#E6D0BE"/>
<path d="M153.752 157.523C153.634 157.523 153.538 157.416 153.538 157.283V-9.88512C153.538 -10.0179 153.634 -10.1257 153.752 -10.1257C153.87 -10.1257 153.966 -10.0179 153.966 -9.88512V157.283C153.966 157.416 153.87 157.523 153.752 157.523Z" fill="#E6D0BE"/>
<path d="M158.285 157.523C158.167 157.523 158.071 157.416 158.071 157.283V-9.88512C158.071 -10.0179 158.167 -10.1257 158.285 -10.1257C158.404 -10.1257 158.499 -10.0179 158.499 -9.88512V157.283C158.499 157.416 158.404 157.523 158.285 157.523Z" fill="#E6D0BE"/>
<path d="M162.819 157.523C162.7 157.523 162.605 157.416 162.605 157.283V-9.88512C162.605 -10.0179 162.7 -10.1257 162.819 -10.1257C162.937 -10.1257 163.033 -10.0179 163.033 -9.88512V157.283C163.033 157.416 162.937 157.523 162.819 157.523Z" fill="#E6D0BE"/>
<path d="M176.382 160.292H99.6074C99.489 160.292 99.3934 160.184 99.3934 160.051V-12.7595C99.3934 -12.8922 99.489 -13 99.6074 -13H176.382C176.5 -13 176.596 -12.8922 176.596 -12.7595V160.051C176.596 160.184 176.5 160.292 176.382 160.292ZM99.8215 159.811H176.168V-12.5189H99.8215V159.811Z" fill="#363E44"/>
<path d="M93.4869 91.5373C93.3686 91.5373 93.2729 91.4295 93.2729 91.2967V64.4193C93.2729 64.2865 93.3686 64.1787 93.4869 64.1787C93.6053 64.1787 93.701 64.2865 93.701 64.4193V91.2967C93.701 91.4295 93.6051 91.5373 93.4869 91.5373Z" fill="#363E44"/>
<path d="M74.9874 139.362C74.946 139.362 74.9045 139.343 74.8749 139.305C74.8199 139.235 74.8258 139.128 74.888 139.067C84.3228 129.703 89.7338 116.225 89.7338 102.091C89.7338 79.6898 76.2864 60.0748 57.0323 54.3907C56.9521 54.3671 56.904 54.2748 56.9252 54.1846C56.9462 54.0945 57.0281 54.0406 57.1086 54.0643C76.4948 59.7874 90.0342 79.5365 90.0342 102.091C90.0342 116.322 84.5861 129.892 75.0869 139.32C75.0582 139.348 75.0227 139.362 74.9874 139.362Z" fill="#363E44"/>
<path d="M60.6366 62.9271C60.5836 62.9271 60.5322 62.8955 60.5049 62.8397L56.2236 54.0995C56.202 54.0554 56.1991 54.0029 56.2153 53.9563C56.2317 53.9096 56.2656 53.8734 56.3082 53.8577L64.7403 50.7365C64.8189 50.7073 64.9039 50.7556 64.93 50.844C64.956 50.9326 64.9132 51.028 64.8342 51.0572L56.574 54.1148L60.768 62.6768C60.8081 62.7585 60.7816 62.8611 60.7089 62.906C60.686 62.9203 60.6612 62.9271 60.6366 62.9271Z" fill="#363E44"/>
<path d="M27.4631 147.234C27.4421 147.234 27.4209 147.229 27.4005 147.219C19.8293 143.303 13.4113 137.078 8.84015 129.216C4.14926 121.15 1.67004 111.77 1.67004 102.09C1.67004 85.5702 8.95207 70.1787 21.1495 60.9181C21.2182 60.8657 21.3118 60.8863 21.358 60.9635C21.4046 61.0408 21.3864 61.1456 21.3176 61.1978C9.20305 70.3956 1.97046 85.6825 1.97046 102.09C1.97046 121.289 12.0016 138.882 27.5261 146.912C27.6015 146.951 27.6345 147.051 27.5997 147.136C27.5744 147.198 27.5201 147.234 27.4631 147.234Z" fill="#363E44"/>
<path d="M19.0978 148.982C19.0254 148.982 18.9617 148.923 18.9497 148.84C18.9365 148.748 18.992 148.662 19.0739 148.647L27.6582 147.08L24.709 137.886C24.6808 137.798 24.7213 137.701 24.7995 137.67C24.8768 137.638 24.9635 137.684 24.9916 137.771L28.0022 147.157C28.0175 147.204 28.013 147.257 27.9905 147.3C27.9678 147.343 27.9292 147.373 27.8851 147.381L19.122 148.98C19.114 148.981 19.1058 148.982 19.0978 148.982Z" fill="#363E44"/>
<path d="M229.985 63.8584H140.073V234.374H229.985V63.8584Z" fill="#EFBC73"/>
<path d="M233.189 234.542H143.277C143.194 234.542 143.127 234.467 143.127 234.374V63.8584C143.127 63.7652 143.194 63.6896 143.277 63.6896H233.189C233.272 63.6896 233.339 63.7652 233.339 63.8584V234.374C233.339 234.467 233.272 234.542 233.189 234.542ZM143.427 234.205H233.039V64.0272H143.427V234.205Z" fill="#363E44"/>
<path d="M183.6 73.8061H149.331V111.73H183.6V73.8061Z" fill="#F7F1EB"/>
<path d="M220.798 73.8061H186.529V111.73H220.798V73.8061Z" fill="#F7F1EB"/>
<path d="M183.6 114.645H149.331V152.57H183.6V114.645Z" fill="#F7F1EB"/>
<path d="M220.798 114.645H186.529V152.57H220.798V114.645Z" fill="#F7F1EB"/>
<path d="M220.798 172.476C217.62 172.476 215.035 169.57 215.035 165.999C215.035 162.428 217.62 159.523 220.798 159.523C223.975 159.523 226.561 162.428 226.561 165.999C226.561 169.57 223.975 172.476 220.798 172.476ZM220.798 159.861C217.786 159.861 215.336 162.614 215.336 165.999C215.336 169.384 217.786 172.138 220.798 172.138C223.81 172.138 226.26 169.384 226.26 165.999C226.26 162.614 223.81 159.861 220.798 159.861Z" fill="#363E44"/>
<path d="M219.34 161.643L224.938 165.344L210.305 186.098L219.34 161.643Z" fill="#FFD092"/>
<path d="M210.305 186.267C210.279 186.267 210.253 186.259 210.229 186.244C210.164 186.201 210.138 186.111 210.166 186.034L219.201 161.579C219.218 161.534 219.251 161.499 219.292 161.483C219.334 161.468 219.379 161.473 219.416 161.498L225.014 165.199C225.051 165.223 225.077 165.265 225.085 165.313C225.093 165.361 225.082 165.411 225.055 165.449L210.423 186.203C210.394 186.245 210.35 186.267 210.305 186.267ZM219.413 161.887L210.858 185.043L224.713 165.391L219.413 161.887Z" fill="#363E44"/>
</g>
</svg>
